<svg xmlns="http://www.w3.org/2000/svg" viewBox="0 0 48 48"><path fill="#38bdf8" d="M24 14c-5.333 0-8.667 2.667-10 8c2-4 4.667-5.333 8-4c1.733.667 2.967 2.333 4.267 4.267C27.6 24.267 29.067 26 32 26c5.333 0 8.667-2.667 10-8c-2 4-4.667 5.333-8 4c-1.733-.667-2.967-2.333-4.267-4.267C28.4 17.733 26.933 16 24 16zm-10 10c-5.333 0-8.667 2.667-10 8c2-4 4.667-5.333 8-4c1.733.667 2.967 2.333 4.267 4.267C17.6 34.267 19.067 36 22 36c5.333 0 8.667-2.667 10-8c-2 4-4.667 5.333-8 4c-1.733-.667-2.967-2.333-4.267-4.267C22.4 27.733 20.933 26 18 26z"/></svg>